<?xml version="1.0" encoding="UTF-8"?>
<!DOCTYPE svg PUBLIC "-//W3C//DTD SVG 1.0//EN" "http://www.w3.org/TR/2001/REC-SVG-20010904/DTD/svg10.dtd">
<!-- Creator: CorelDRAW -->
<svg xmlns="http://www.w3.org/2000/svg" xml:space="preserve" width="2.7092mm" height="2.7092mm" version="1.0" style="shape-rendering:geometricPrecision; text-rendering:geometricPrecision; image-rendering:optimizeQuality; fill-rule:evenodd; clip-rule:evenodd"
viewBox="0 0 270.92 270.92"
 xmlns:xlink="http://www.w3.org/1999/xlink"
 xmlns:xodm="http://www.corel.com/coreldraw/odm/2003">
 <defs>
  <style type="text/css">
   <![CDATA[
    .fil1 {fill:black}
    .fil0 {fill:#FF6A00}
   ]]>
  </style>
 </defs>
 <g id="Layer_x0020_1">
  <metadata id="CorelCorpID_0Corel-Layer"/>
  <rect class="fil0" x="-0.01" y="-0" width="270.93" height="270.93"/>
  <path class="fil1" d="M82.28 60.74l15.45 0 33.22 0c21.93,0 38.19,0.52 48.93,1.56 10.8,1.08 20.38,3.27 28.86,6.59 8.49,3.34 15.56,7.77 21.22,13.32 5.66,5.54 8.48,11.79 8.48,18.68 0,7.44 -3.47,14.33 -10.41,20.54 -6.94,6.25 -16.39,10.9 -28.29,14.03 11.9,3.13 21.35,7.78 28.29,14.03 6.94,6.22 10.41,13.1 10.41,20.54 0,6.89 -2.82,13.14 -8.48,18.68 -5.66,5.55 -12.73,9.98 -21.22,13.33 -8.48,3.31 -18.06,5.5 -28.86,6.58 -10.74,1.04 -27,1.57 -48.93,1.57l-33.22 0 -15.45 0 -49.81 0 65.17 -74.73 -65.17 -74.72 49.81 0zm18.2 120.83c66.5,-87.42 160.04,8.83 0,0zm-5.04 -96.54c76.17,88.16 169.46,-6.16 0,0z"/>
 </g>
</svg>
